<svg xmlns="http://www.w3.org/2000/svg" width="44.84" height="51.245" viewBox="0 0 44.84 51.245">
  <path id="Path_193" data-name="Path 193" d="M12.011-51.625a.8.8,0,0,1,.8.8v5.6H32.028v-5.6a.8.8,0,0,1,.8-.8.8.8,0,0,1,.8.8v5.6h4.8a6.412,6.412,0,0,1,6.406,6.406V-6.786A6.412,6.412,0,0,1,38.434-.38H6.406A6.412,6.412,0,0,1,0-6.786V-38.814a6.412,6.412,0,0,1,6.406-6.406h4.8v-5.6a.8.8,0,0,1,.8-.8ZM43.238-32.408H1.6V-6.786a4.805,4.805,0,0,0,4.8,4.8H38.434a4.805,4.805,0,0,0,4.8-4.8ZM11.21-39.614v-4h-4.8a4.805,4.805,0,0,0-4.8,4.8v4.8H43.238v-4.8a4.805,4.805,0,0,0-4.8-4.8h-4.8v4a.8.8,0,0,1-.8.8.8.8,0,0,1-.8-.8v-4H12.811v4a.8.8,0,0,1-.8.8.8.8,0,0,1-.8-.8Z" transform="translate(0 51.625)" fill="#e2c77e"/>
</svg>
