<?xml version="1.0" encoding="UTF-8"?>
<svg id="Layer_1" data-name="Layer 1" xmlns="http://www.w3.org/2000/svg" version="1.1" viewBox="0 0 67 67">
  <defs>
    <style>
      .cls-1 {
        fill: #e2c77e;
        stroke-width: 0px;
      }

      .cls-2 {
        isolation: isolate;
      }
    </style>
  </defs>
  <g class="cls-2">
    <path class="cls-1" d="M14.6,21.1l2,.8c.3.1.5.1.8,0l2.1-.8c1.3-.5,2.8-.1,3.6,1l1.4,1.7c.2.2.4.3.7.4l2.2.3c1.4.2,2.4,1.3,2.6,2.6l.3,2.2c0,.3.2.5.4.7l1.7,1.4c1.1.9,1.5,2.3,1,3.6l-.8,2c-.1.3-.1.5,0,.8l.8,2c.5,1.3.1,2.8-1,3.6l-1.7,1.4c-.2.2-.3.4-.4.7l-.3,2.2c-.2,1.4-1.3,2.4-2.6,2.6l-2,.3v14.7c0,.4-.2.7-.5.9s-.7.2-1,0l-6.7-3.8-6.7,3.8c-.3.2-.7.2-1,0s-.5-.5-.5-.9v-14.7l-2-.3c-1.4-.2-2.4-1.3-2.6-2.6l-.3-2.2c0-.3-.2-.5-.4-.7l-1.7-1.4c-1.1-.9-1.5-2.3-1-3.6l.8-2c.1-.3.1-.5,0-.8l-.8-2c-.5-1.3-.1-2.8,1-3.6l1.8-1.4c.2-.2.3-.4.4-.7l.3-2.2c.2-1.4,1.3-2.4,2.6-2.6l2.2-.3c.3,0,.5-.2.7-.4l1.3-1.7c.9-1.1,2.3-1.5,3.6-1h0ZM24,48.7c.2-.1.5-.2.8-.2l2.2-.3c.5,0,.8-.4.9-.9l.3-2.2c.1-.8.5-1.5,1.2-2l1.7-1.4c.4-.3.5-.8.3-1.2l-.8-2c-.3-.7-.3-1.6,0-2.3l.8-2c.2-.4,0-.9-.3-1.2l-1.7-1.4c-.6-.5-1.1-1.2-1.2-2l-.3-2.2c0-.5-.4-.8-.9-.9l-2.2-.3c-.8-.1-1.5-.5-2-1.2l-1.4-1.7c-.3-.4-.8-.5-1.2-.3l-2,.8c-.7.3-1.6.3-2.3,0l-2-.8c-.4-.2-.9,0-1.2.3l-1.4,1.7c-.5.6-1.2,1.1-2,1.2l-2.2.3c-.5,0-.8.4-.9.9l-.3,2.2c-.1.8-.5,1.5-1.2,2l-1.7,1.4c-.4.3-.5.8-.3,1.2l.8,2c.3.7.3,1.6,0,2.3l-.8,2c-.2.4,0,.9.3,1.2l1.8,1.4c.6.5,1.1,1.2,1.2,2l.3,2.2c0,.5.4.8.9.9l2.2.3c.3,0,.5.1.8.2.2,0,.4.1.5.3.3.2.5.4.7.7l1.3,1.7c.3.4.8.5,1.2.3l2-.8c.7-.3,1.6-.3,2.3,0l2,.8c.4.2.9,0,1.2-.3l1.4-1.7c.2-.3.5-.5.7-.7.1-.1.3-.2.5-.3h0ZM21.1,44.5c-2.6,1.5-5.7,1.5-8.2,0s-4.1-4.2-4.1-7.1,1.6-5.7,4.1-7.1,5.7-1.5,8.2,0,4.1,4.2,4.1,7.1-1.6,5.7-4.1,7.1ZM13.9,42.7c1.9,1.1,4.3,1.1,6.2,0s3.1-3.1,3.1-5.4-1.2-4.3-3.1-5.4-4.3-1.1-6.2,0-3.1,3.1-3.1,5.4,1.2,4.3,3.1,5.4ZM10.8,63.4l5.7-3.2c.3-.2.7-.2,1,0l5.7,3.2v-10.9.2c-1,1.1-2.5,1.5-3.8,1l-2-.8c-.3-.1-.5-.1-.8,0l-2,.8c-1.3.5-2.8.1-3.6-1v-.2c-.1,0-.1,10.9-.1,10.9ZM17.9,17.3c-.3.1-.7.3-.9.4h0s0-9.2,0-9.2C17,3.9,20.7.2,25.3.2h18.1c1.6,0,3.2.7,4.4,1.8l17,17c1.2,1.2,1.8,2.7,1.8,4.4v34.6c0,4.6-3.7,8.2-8.2,8.2h-29.2c.2-.7.3-1.4.3-2.1h28.9c3.4,0,6.2-2.8,6.2-6.2V23.4c0-.2,0-.3,0-.5h-15.4c-2.8,0-5.2-2.3-5.2-5.2V2.3c-.2,0-.3,0-.5,0h-18.1c-3.4,0-6.2,2.8-6.2,6.2v8.4c-.4,0-.8.2-1.2.4ZM46.2,3.5c-.1-.1-.2-.2-.3-.3v14.6c0,1.7,1.4,3.1,3.1,3.1h14.6c0-.1-.2-.2-.3-.3L46.2,3.5Z"/>
  </g>
</svg>