<?xml version="1.0" encoding="UTF-8"?>
<svg id="Layer_1" data-name="Layer 1" xmlns="http://www.w3.org/2000/svg" version="1.1" viewBox="0 0 60 60">
  <defs>
    <style>
      .cls-1 {
        fill: #e2c77e;
        stroke-width: 0px;
      }

      .cls-2 {
        isolation: isolate;
      }
    </style>
  </defs>
  <g class="cls-2">
    <path class="cls-1" d="M59.5,29.9c0,16.3-13.2,29.5-29.5,29.5S.5,46.2.5,29.9,3.8,14.4,9.1,9c.4-.4.9-.4,1.3,0,.4.4.4.9,0,1.3C5.4,15.3,2.3,22.2,2.3,29.9c0,15.3,12.4,27.7,27.7,27.7s27.7-12.4,27.7-27.7S45.8,2.7,30.9,2.2v12c0,.5-.4.9-.9.9s-.9-.4-.9-.9V1.3c0-.5.4-.9.9-.9,16.3,0,29.5,13.2,29.5,29.5ZM30.7,29.2c.4.4.4.9,0,1.3s-.9.4-1.3,0l-11.1-11.1c-.4-.4-.4-.9,0-1.3s.9-.4,1.3,0l11.1,11.1Z"/>
  </g>
</svg>