<svg xmlns="http://www.w3.org/2000/svg" width="71.215" height="51.265" viewBox="0 0 71.215 51.265">
  <path id="Path_189" data-name="Path 189" d="M7.075-45.333,3.25-35.769A1.836,1.836,0,0,0,4.494-33.3L23.819-28.29A2.756,2.756,0,0,0,26.8-29.419l8.481-12.6L8.066-45.9a.929.929,0,0,0-.991.565ZM8.32-47.719l28.555,4.079L65.43-47.719a2.767,2.767,0,0,1,2.962,1.705l3.826,9.564a3.69,3.69,0,0,1-2.5,4.944L50.392-26.492a4.6,4.6,0,0,1-4.978-1.89L36.887-41.058,28.359-28.382a4.616,4.616,0,0,1-4.978,1.89L4.033-31.505a3.693,3.693,0,0,1-2.5-4.944l3.826-9.564A2.753,2.753,0,0,1,8.32-47.719Zm56.211,21,1.844-.53-4,19.244a5.544,5.544,0,0,1-4.195,5.37L38.212,3.353a5.57,5.57,0,0,1-2.685,0L16.558-2.639a5.547,5.547,0,0,1-4.183-5.37l-5-19.244,1.844.53,5,18.714a3.676,3.676,0,0,0,2.789,3.572L35.953,1.556V-28.578a.925.925,0,0,1,.922-.922.925.925,0,0,1,.922.922V1.556L57.743-4.425A3.7,3.7,0,0,0,60.531-8ZM65.684-45.9,38.465-42.014l8.481,12.6a2.763,2.763,0,0,0,2.985,1.129L69.256-33.3A1.84,1.84,0,0,0,70.5-35.769l-3.826-9.564A.915.915,0,0,0,65.684-45.9Z" transform="translate(-1.27 47.748)" fill="#e2c77e"/>
</svg>
