<svg xmlns="http://www.w3.org/2000/svg" width="51.352" height="59" viewBox="0 0 51.352 59">
  <path id="Path_194" data-name="Path 194" d="M26.734-50.7a.925.925,0,0,0-.922-.922.925.925,0,0,0-.922.922v11.6l-5.8-5.808a.925.925,0,0,0-1.3,0,.925.925,0,0,0,0,1.3l7.1,7.11v12.768L13.828-30.111l-2.593-9.7a.922.922,0,0,0-1.129-.657.922.922,0,0,0-.657,1.129l2.12,7.928-10.048-5.8a.921.921,0,0,0-1.256.334A.921.921,0,0,0,.6-35.619l10.048,5.8L2.731-27.691a.922.922,0,0,0-.657,1.129A.922.922,0,0,0,3.2-25.9l9.7-2.6,11.063,6.384L12.906-15.741l-9.7-2.6a.922.922,0,0,0-1.129.657.922.922,0,0,0,.657,1.129l7.928,2.12L.6-8.631A.921.921,0,0,0,.265-7.375a.921.921,0,0,0,1.256.334l10.048-5.8L9.449-4.909a.922.922,0,0,0,.657,1.129.922.922,0,0,0,1.129-.657l2.593-9.7,11.063-6.384V-7.755l-7.11,7.11a.925.925,0,0,0,0,1.3.925.925,0,0,0,1.3,0l5.808-5.808v11.6a.922.922,0,0,0,1.844,0v-11.6l5.8,5.8a.925.925,0,0,0,1.3,0,.925.925,0,0,0,0-1.3l-7.1-7.1V-20.523L37.8-14.139l2.6,9.7a.922.922,0,0,0,1.129.657.922.922,0,0,0,.657-1.129l-2.12-7.928,10.048,5.8a.921.921,0,0,0,1.256-.334.921.921,0,0,0-.334-1.256l-10.048-5.8,7.928-2.12a.922.922,0,0,0,.657-1.129.922.922,0,0,0-1.129-.657l-9.726,2.593L27.656-22.125l11.063-6.384,9.7,2.6a.922.922,0,0,0,1.129-.657.922.922,0,0,0-.657-1.129l-7.928-2.12,10.048-5.8a.921.921,0,0,0,.334-1.256.921.921,0,0,0-1.256-.334L40.044-31.4l2.132-7.94a.922.922,0,0,0-.657-1.129.922.922,0,0,0-1.129.657l-2.593,9.7L26.734-23.727V-36.495l7.11-7.11a.925.925,0,0,0,0-1.3.925.925,0,0,0-1.3,0L26.734-39.1Z" transform="translate(-0.143 51.625)" fill="#e2c77e"/>
</svg>
