<svg xmlns="http://www.w3.org/2000/svg" xmlns:xlink="http://www.w3.org/1999/xlink" width="39.65" height="60.1" viewBox="0 0 39.65 60.1">
  <defs>
    <clipPath id="clip-path">
      <rect id="Rectangle_496" data-name="Rectangle 496" width="39.65" height="60.099" fill="none" stroke="#e2c77e" stroke-width="1.5"/>
    </clipPath>
  </defs>
  <g id="Group_1762" data-name="Group 1762" transform="translate(0 0)">
    <g id="Group_1761" data-name="Group 1761" transform="translate(0 0)" clip-path="url(#clip-path)">
      <path id="Path_190" data-name="Path 190" d="M18.512,1.85,18.1,2.974l-1.074.878L14.9,5.381l-.308.517-.416,1.778,2.017-.293L16.844,6.3l.988.607,1.819.292s1.358.2,1.423.2a1.774,1.774,0,0,1,1.4-.225c.681.27,1.074,1.08.307,1.575s-.883,2.092-.883,2.092a2.483,2.483,0,0,1-1.134,2.137,2.462,2.462,0,0,1-2.038,1.89l1.317,1.192s-2.172.9-2.281.878-2.236.472-2.236.472l1.951,1.1,1.053-.2,1.029-.18,1.556.72,1.754,2.407.943,1.551.461,1.979,1.161,2.791,2.1,1.641,1.534,1.957,1.141,2.565-2.455-.023,3.09,2.047.329,1.71-.943,1.686,1.425.99,1.03-.968s2.609-.7,4.186.878-.833,5.2-.833,5.2l-.724.9-1.425.675L33.722,48.3l-2.587.675.4.652,3.791.248,1.4.2-.526,1.35-1.777,1.147-1.929,1.485-1.644-.337-2.366.224-2.434-.269-2.409.113-.966,1.327-1.665.7-2.389-1.44-2.235.382-.154,1.35L15,57.84l-1.686-.833-2.17-.023-1.207.742-1.129,1.62-1.72-.113-.7-.878L8.167,57.5,9.459,55.95l2.017-1.957.876-1.664,1.71-1.238,2.541.383h1.512l1.93-3.374-2.193.675-.526.652-1.884-.09-.965-.9L13.185,47.4l-1.556.18-1.337.607a6.841,6.841,0,0,1-1.074-.652c0-.09-.24-1.259-.24-1.259l1.315-.966,2.061-.765,1.6-1.238-.264-2.092-.234-1.395-1.978.562-.352-.72.813-.562.656-.765-.724-.765.307-1.094,1.278.757,1.157.068,2.345-.09,1.709.495.58-1.229L18.1,35.795l.57-1.889.328-2.115.154-1.058-2.017.449-1.007-1.192.283-2.25,1.58-2.047s-.987-.989-1.052-.989-1.4,1.574-1.4,1.574l-1.621-.2-.659,1.034-1.928.406-.591-2,.612-2.137L12.309,22l-.659-2.226-1.358-.563-.656,2.812L8.09,21.859,8.7,18.08l1.2-1.631,1.052-3.464a4.911,4.911,0,0,0-.637-.765c-.086,0-1.577,2.7-1.577,2.7l-1.074-1.1,1.163-2.632.2-1.665-.789-.945s.746-2.474.856-2.609a10.237,10.237,0,0,1,2.037,0l-1.05-2.137,1.532-.54-.612-1.058L11.913.837l1.382.675,2.872-.54L17.305.5l.855.225Z" transform="translate(1.61 0.126)" fill="none" stroke="#e2c77e" stroke-linejoin="round" stroke-width="1.5"/>
      <path id="Path_191" data-name="Path 191" d="M.5,24.082l.608-.759,1.347-.237-.3-.894.394-.742.921-1.3.706-.185.888-.473,1.413-.32.659-.573.985,1.232.428.692.724.978.213.659a9.39,9.39,0,0,0-.756.876c.05.018.871.625.871.625l.691.742-.461.905-.888.428-.1.928-1.183.253-.625-.438-.839.59-.459-.59L5.6,25.431,5.037,24.42l-1.1.05-.344,1.67-1.233.085L.779,25.307Z" transform="translate(0.126 4.686)" fill="none" stroke="#e2c77e" stroke-linejoin="round" stroke-width="1.5"/>
    </g>
  </g>
</svg>
