<svg xmlns="http://www.w3.org/2000/svg" width="53.803" height="59.899" viewBox="0 0 53.803 59.899">
  <g id="Group_1760" data-name="Group 1760" transform="translate(22448.666 5184.831)">
    <path id="Path_186" data-name="Path 186" d="M73,155.406c0,6.306-5.112,5.985-11.417,5.985s-11.417.321-11.417-5.985a11.392,11.392,0,0,1,3.976-8.66.877.877,0,0,1,1.206.072c.047.049.094.1.143.146a8.614,8.614,0,0,0,12.184,0c.05-.05.1-.1.148-.151a.872.872,0,0,1,1.2-.068A11.389,11.389,0,0,1,73,155.406Z" transform="translate(-22483.684 -5287.324)" fill="none" stroke="#e2c77e" stroke-linecap="round" stroke-linejoin="round" stroke-width="2"/>
    <path id="Path_187" data-name="Path 187" d="M79.328,112.8a5.473,5.473,0,1,1,0-7.739A5.448,5.448,0,0,1,79.328,112.8Z" transform="translate(-22497.564 -5257.165)" fill="none" stroke="#e2c77e" stroke-linecap="round" stroke-linejoin="round" stroke-width="2"/>
    <line id="Line_97" data-name="Line 97" y1="7.379" transform="translate(-22422.105 -5166.184)" fill="none" stroke="#e2c77e" stroke-linecap="round" stroke-linejoin="round" stroke-width="2"/>
    <line id="Line_98" data-name="Line 98" y1="4.158" x2="2.754" transform="translate(-22413.213 -5157.862)" fill="none" stroke="#e2c77e" stroke-linecap="round" stroke-linejoin="round" stroke-width="2"/>
    <line id="Line_99" data-name="Line 99" x1="2.754" y1="4.158" transform="translate(-22433.752 -5157.862)" fill="none" stroke="#e2c77e" stroke-linecap="round" stroke-linejoin="round" stroke-width="2"/>
    <rect id="Rectangle_495" data-name="Rectangle 495" width="13.226" height="13.226" rx="6.613" transform="translate(-22447.666 -5175.722)" fill="none" stroke="#e2c77e" stroke-linecap="round" stroke-linejoin="round" stroke-width="2"/>
    <path id="Path_188" data-name="Path 188" d="M75.943,16.105H66.564A2.5,2.5,0,0,1,64.4,12.349l4.69-8.1a2.5,2.5,0,0,1,4.332,0l4.689,8.1A2.5,2.5,0,0,1,75.943,16.105Z" transform="translate(-22493.414 -5186.831)" fill="none" stroke="#e2c77e" stroke-linecap="round" stroke-linejoin="round" stroke-width="2"/>
    <ellipse id="Ellipse_34" data-name="Ellipse 34" cx="7.404" cy="7.403" rx="7.404" ry="7.403" transform="translate(-22410.67 -5176.513)" fill="none" stroke="#e2c77e" stroke-linecap="round" stroke-linejoin="round" stroke-width="2"/>
  </g>
</svg>
