<?xml version="1.0" encoding="UTF-8"?>
<svg id="Layer_1" data-name="Layer 1" xmlns="http://www.w3.org/2000/svg" version="1.1" viewBox="0 0 88.2 49.3">
  <defs>
    <style>
      .cls-1 {
        fill: #e2c77e;
        stroke-width: 0px;
      }
    </style>
  </defs>
  <path class="cls-1" d="M5.2,41.4h9.6v3.5c0,2.1,1.7,3.8,3.8,3.8h8c2.1,0,3.8-1.7,3.8-3.8v-19.5h27.9v19.5c0,2.1,1.7,3.8,3.8,3.8h8c2.1,0,3.8-1.7,3.8-3.8v-3.5h9.6c2.1,0,3.8-1.7,3.8-3.8V11.2c0-2.1-1.7-3.8-3.8-3.8h-9.6v-3.5c0-2.1-1.7-3.8-3.8-3.8h-8c-2.1,0-3.8,1.7-3.8,3.8v19.5h-27.9V3.8c0-2.1-1.7-3.8-3.8-3.8h-8c-2.1,0-3.8,1.7-3.8,3.8v3.5H5.2c-2.1,0-3.8,1.7-3.8,3.8v26.5c0,2.1,1.7,3.8,3.8,3.8ZM73.9,9.5h11.2v29.7h-11.2V9.5ZM60.5,2.2h11.2v44.3h-11.2V2.2ZM17,2.2h11.2v44.3h-11.2V2.2ZM3.6,9.5h11.2v29.7H3.6V9.5Z"/>
</svg>